<?xml version="1.0" encoding="UTF-8"?>
<svg xmlns="http://www.w3.org/2000/svg" xmlns:xlink="http://www.w3.org/1999/xlink" width="3000" height="2000" viewBox="0 0 3000 2000">
<defs>
<radialGradient id="radial-pattern-0" gradientUnits="userSpaceOnUse" cx="0" cy="0" fx="0" fy="0" r="1274.75" gradientTransform="matrix(1, 0, 0, 1, 1500, 1000)">
<stop offset="0" stop-color="rgb(98.425293%, 98.81134%, 91.281128%)" stop-opacity="1"/>
<stop offset="0.0625" stop-color="rgb(98.413086%, 98.788452%, 91.065979%)" stop-opacity="1"/>
<stop offset="0.121094" stop-color="rgb(98.399353%, 98.75946%, 90.800476%)" stop-opacity="1"/>
<stop offset="0.175781" stop-color="rgb(98.382568%, 98.727417%, 90.52124%)" stop-opacity="1"/>
<stop offset="0.226562" stop-color="rgb(98.36731%, 98.696899%, 90.238953%)" stop-opacity="1"/>
<stop offset="0.273438" stop-color="rgb(98.352051%, 98.666382%, 89.962769%)" stop-opacity="1"/>
<stop offset="0.316406" stop-color="rgb(98.336792%, 98.635864%, 89.697266%)" stop-opacity="1"/>
<stop offset="0.355469" stop-color="rgb(98.323059%, 98.606873%, 89.434814%)" stop-opacity="1"/>
<stop offset="0.394531" stop-color="rgb(98.3078%, 98.579407%, 89.178467%)" stop-opacity="1"/>
<stop offset="0.429688" stop-color="rgb(98.294067%, 98.550415%, 88.926697%)" stop-opacity="1"/>
<stop offset="0.464844" stop-color="rgb(98.280334%, 98.522949%, 88.684082%)" stop-opacity="1"/>
<stop offset="0.496094" stop-color="rgb(98.268127%, 98.497009%, 88.449097%)" stop-opacity="1"/>
<stop offset="0.527344" stop-color="rgb(98.25592%, 98.472595%, 88.226318%)" stop-opacity="1"/>
<stop offset="0.554688" stop-color="rgb(98.243713%, 98.449707%, 88.014221%)" stop-opacity="1"/>
<stop offset="0.582031" stop-color="rgb(98.233032%, 98.426819%, 87.814331%)" stop-opacity="1"/>
<stop offset="0.605469" stop-color="rgb(98.217773%, 98.396301%, 87.530518%)" stop-opacity="1"/>
<stop offset="0.652344" stop-color="rgb(98.196411%, 98.355103%, 87.162781%)" stop-opacity="1"/>
<stop offset="0.695312" stop-color="rgb(98.178101%, 98.318481%, 86.837769%)" stop-opacity="1"/>
<stop offset="0.730469" stop-color="rgb(98.162842%, 98.287964%, 86.555481%)" stop-opacity="1"/>
<stop offset="0.761719" stop-color="rgb(98.149109%, 98.258972%, 86.302185%)" stop-opacity="1"/>
<stop offset="0.789062" stop-color="rgb(98.136902%, 98.234558%, 86.082458%)" stop-opacity="1"/>
<stop offset="0.8125" stop-color="rgb(98.124695%, 98.21167%, 85.876465%)" stop-opacity="1"/>
<stop offset="0.835938" stop-color="rgb(98.109436%, 98.181152%, 85.597229%)" stop-opacity="1"/>
<stop offset="0.875" stop-color="rgb(98.092651%, 98.146057%, 85.281372%)" stop-opacity="1"/>
<stop offset="0.90625" stop-color="rgb(98.078918%, 98.118591%, 85.032654%)" stop-opacity="1"/>
<stop offset="0.929688" stop-color="rgb(98.06366%, 98.088074%, 84.762573%)" stop-opacity="1"/>
<stop offset="0.964844" stop-color="rgb(98.045349%, 98.052979%, 84.455872%)" stop-opacity="1"/>
<stop offset="1" stop-color="rgb(98.03772%, 98.03772%, 84.312439%)" stop-opacity="1"/>
</radialGradient>
</defs>
<rect x="-300" y="-200" width="3600" height="2400" fill="url(#radial-pattern-0)"/>
<path fill-rule="nonzero" fill="rgb(7.446289%, 28.637695%, 7.446289%)" fill-opacity="1" d="M 2611.050781 833.769531 L 2588.75 840.851562 C 2578.671875 801.199219 2556.820312 726.121094 2523.671875 668.960938 L 2546.609375 644.238281 C 2546.609375 644.238281 2568.75 678.078125 2592.929688 720.710938 C 2600.78125 760.929688 2607.628906 801.191406 2611.050781 833.769531 "/>
<path fill-rule="nonzero" fill="rgb(50.584412%, 66.601562%, 11.376953%)" fill-opacity="1" d="M 2681.738281 703.039062 C 2659.539062 776.101562 2658.089844 821.121094 2655.96875 821.238281 C 2646.558594 821.941406 2649.429688 821.601562 2611.050781 833.769531 C 2602.609375 753.460938 2571.390625 614.710938 2552.011719 538.109375 L 2587.769531 523.558594 C 2626.238281 590.441406 2642.410156 711.859375 2642.410156 711.859375 C 2651.859375 664.601562 2632.960938 574.449219 2632.960938 574.449219 L 2666.699219 573 C 2675.359375 591.089844 2679.679688 644.988281 2681.738281 703.039062 "/>
<path fill-rule="nonzero" fill="rgb(7.446289%, 28.637695%, 7.446289%)" fill-opacity="1" d="M 2757.101562 618.078125 C 2719.089844 681.539062 2707.179688 779.601562 2703.460938 832.070312 C 2697.78125 828.769531 2691.78125 826.121094 2685.410156 824.21875 C 2680.480469 822.71875 2686.378906 833.320312 2681.738281 703.039062 C 2703.878906 630.238281 2729.429688 590.441406 2729.429688 590.441406 L 2757.101562 618.078125 "/>
<path fill-rule="nonzero" fill="rgb(7.446289%, 28.637695%, 7.446289%)" fill-opacity="1" d="M 2683.480469 823.671875 C 2675.121094 821.429688 2666.148438 820.519531 2656.53125 821.199219 C 2662.460938 775.5 2671.75 735.910156 2681.738281 703.039062 C 2683.230469 745.070312 2683.550781 789.289062 2683.480469 823.671875 "/>
<path fill-rule="nonzero" fill="rgb(100%, 56.834412%, 0%)" fill-opacity="1" d="M 2779.730469 1237.078125 C 2760.71875 1237.539062 2729.949219 1218.308594 2729.949219 1218.308594 L 2799.640625 1214.21875 C 2798.929688 1040.050781 2792.699219 997.339844 2779.300781 952.011719 C 2674.289062 941.710938 2628.71875 923.230469 2773.339844 933.488281 C 2757.328125 887.820312 2730.199219 836.878906 2683.480469 823.671875 C 2655.820312 816.238281 2646.660156 822.480469 2571.589844 846.289062 C 2552.71875 864.371094 2537.421875 901.628906 2525.71875 958.121094 C 2525.71875 958.121094 2523.039062 983.390625 2519.75 1017.390625 C 2584.511719 1016.070312 2617.828125 1024.320312 2518.179688 1033.871094 C 2504.441406 1180.421875 2502.378906 1188.839844 2531.601562 1329.539062 C 2542.109375 1326.328125 2528.960938 1326.851562 2646.460938 1325.179688 L 2689 1339.730469 C 2592.320312 1324.570312 2575.429688 1348.730469 2536.898438 1354.519531 C 2545.339844 1393.378906 2544.101562 1361.660156 2539.210938 1485.351562 C 2539.210938 1485.351562 2550.488281 1565.519531 2559.578125 1622.078125 C 2641.960938 1633.589844 2670.328125 1645.019531 2561.550781 1634.210938 C 2563.851562 1648.148438 2565.941406 1659.878906 2567.539062 1667.480469 C 2594.238281 1793.960938 2575.640625 1871.089844 2630.960938 1878.371094 C 2667.398438 1883.171875 2705.179688 1820.871094 2705.179688 1820.871094 C 2705.179688 1820.871094 2712.96875 1806.511719 2724.039062 1766.019531 L 2645.789062 1766.019531 C 2645.789062 1766.019531 2688.648438 1756.589844 2727.910156 1751.460938 C 2750.21875 1662.898438 2759.039062 1576.53125 2768.859375 1497.289062 C 2695.03125 1481.53125 2715.398438 1484.140625 2682.878906 1484.140625 L 2624.96875 1469.609375 C 2631.019531 1469.609375 2732.371094 1474.839844 2772.480469 1468.089844 C 2803.53125 1217.398438 2799.679688 1255.519531 2799.679688 1231.308594 C 2793.949219 1234.230469 2787.980469 1236.871094 2779.730469 1237.078125 "/>
<path fill-rule="nonzero" fill="rgb(100%, 100%, 100%)" fill-opacity="1" d="M 2688.75 1095 L 2571.699219 1101.058594 C 2571.699219 1101.058594 2698.648438 1068.371094 2715.148438 1080.109375 C 2750.25 1105.058594 2820.921875 1106.738281 2688.75 1095 "/>
<path fill-rule="nonzero" fill="rgb(80.859375%, 0%, 0%)" fill-opacity="1" d="M 2332.210938 1294.851562 C 2319.101562 1305.160156 2254.648438 1322.839844 2247.199219 1322.199219 C 2239.738281 1321.550781 2179.011719 1303.910156 2124.71875 1259.101562 C 2107.539062 1244.929688 2041.828125 1172.101562 2030.671875 1166.558594 C 2025.808594 1164.148438 2025.808594 1153.660156 2027.390625 1142.558594 C 2040.371094 1140.25 2071.148438 1121.140625 2071.148438 1121.140625 C 2080.910156 1105.351562 2083.921875 1104.46875 2078.601562 1097.078125 C 2134.410156 1103.550781 2191.75 1191.378906 2218.699219 1240.03125 C 2218.699219 1240.03125 2252.761719 1267.640625 2279.898438 1271.460938 C 2307.050781 1275.28125 2331.511719 1249.410156 2331.511719 1249.410156 C 2353.011719 1239.449219 2350.480469 1247.371094 2351.820312 1248.328125 C 2353.179688 1249.28125 2345.320312 1284.550781 2332.210938 1294.851562 "/>
<path fill-rule="nonzero" fill="rgb(7.446289%, 28.637695%, 7.446289%)" fill-opacity="1" d="M 2071.148438 1121.140625 C 2063.988281 1125.589844 2032.011719 1144.640625 2023.699219 1142.628906 C 2023.699219 1142.628906 2021.410156 1120.898438 2027.828125 1110.710938 C 2027.828125 1110.710938 1983.679688 1071.128906 1987.800781 1059.660156 C 1991.921875 1048.179688 1977.089844 1031.640625 1974.820312 987.71875 L 1985.558594 984.269531 C 1985.558594 984.269531 1995.648438 1050.03125 2006.78125 1061.671875 C 2017.921875 1073.308594 2044.21875 1099.359375 2044.21875 1099.359375 C 2044.21875 1099.359375 2070.371094 1087.628906 2076.878906 1094.929688 C 2084.761719 1103.710938 2081.238281 1104.808594 2071.148438 1121.140625 "/>
<path fill-rule="nonzero" fill="rgb(7.446289%, 28.637695%, 7.446289%)" fill-opacity="1" d="M 2244.949219 315.980469 C 2235.921875 324.839844 2189.230469 422.941406 2175.660156 444.011719 C 2131.511719 512.570312 2071.839844 556.628906 2063.859375 560.53125 C 2055.808594 564.460938 1976.699219 572.5 1957.78125 566.199219 C 1938.449219 559.761719 1917.820312 520.019531 1919.28125 518.238281 C 1920.730469 516.46875 1915.050781 507.71875 1945.421875 510.839844 C 1945.421875 510.839844 1982.851562 531.660156 2013.878906 515.710938 C 2043.941406 500.28125 2074.738281 455.371094 2074.738281 455.371094 C 2089.941406 397.808594 2130.480469 271.53125 2186.351562 250.371094 C 2182.761719 259.96875 2185.839844 260.289062 2198.519531 275.871094 C 2198.519531 275.871094 2230.980469 289.679688 2243.320312 289.121094 C 2246.820312 300.808594 2248.808594 312.191406 2244.949219 315.980469 "/>
<path fill-rule="nonzero" fill="rgb(50.584412%, 66.601562%, 11.376953%)" fill-opacity="1" d="M 2236.851562 254.328125 C 2244.621094 264.101562 2246.679688 288.339844 2246.679688 288.339844 C 2239.660156 292.53125 2206.140625 279.109375 2198.519531 275.871094 C 2185.308594 259.640625 2181.839844 259.261719 2187.589844 247.519531 C 2192.359375 237.769531 2219.53125 245.308594 2219.53125 245.308594 C 2219.53125 245.308594 2238.691406 210.761719 2246.578125 195.648438 C 2254.410156 180.648438 2251.058594 105.078125 2251.058594 105.078125 L 2261.378906 107.519531 C 2267.511719 157.039062 2257.378906 177.941406 2263.191406 189.910156 C 2268.941406 201.769531 2236.851562 254.328125 2236.851562 254.328125 "/>
<path fill-rule="nonzero" fill="rgb(100%, 56.834412%, 0%)" fill-opacity="1" d="M 1493.929688 1016.191406 C 1406.710938 1052.140625 1377.019531 1006.601562 1377.019531 1006.601562 C 1377.019531 1006.601562 1332.339844 1017.410156 1286.21875 975.199219 C 1240.109375 932.988281 1268.078125 840.121094 1291 783.621094 C 1313.941406 727.109375 1374.988281 695.898438 1374.988281 695.898438 C 1371.210938 690.578125 1350.730469 690.101562 1378.519531 606.898438 C 1401.738281 537.339844 1474.429688 536.359375 1497.640625 537.910156 C 1504.230469 538.339844 1504.210938 537.660156 1519.738281 545.378906 C 1588.210938 579.410156 1584.929688 622.929688 1586.828125 653.261719 C 1588.371094 678.03125 1562.179688 717.96875 1549.761719 735.398438 C 1501.5 700.710938 1510.589844 714.808594 1543.839844 743.441406 C 1543.570312 743.800781 1543.429688 743.988281 1543.429688 743.988281 C 1600.710938 794.359375 1581.148438 980.25 1493.929688 1016.191406 "/>
<path fill-rule="nonzero" fill="rgb(7.446289%, 28.637695%, 7.446289%)" fill-opacity="1" d="M 1568.191406 493.550781 C 1568.191406 493.550781 1534.460938 498.378906 1527.75 511.171875 C 1523.300781 519.671875 1520.871094 535.628906 1519.738281 545.378906 C 1504.191406 537.648438 1504.210938 538.339844 1497.640625 537.910156 C 1504.96875 520.011719 1516.941406 494.03125 1526.230469 489.429688 C 1540.671875 482.289062 1571.21875 476.890625 1571.21875 476.890625 C 1571.21875 476.890625 1571.941406 490.980469 1568.191406 493.550781 "/>
<path fill-rule="nonzero" fill="rgb(7.446289%, 28.637695%, 7.446289%)" fill-opacity="1" d="M 669.269531 1356.488281 C 653.410156 1377.269531 657.871094 1381.921875 666.355469 1468.339844 C 682.992188 1502.058594 689.875 1509.539062 719.632812 1532.550781 C 719.53125 1562.050781 739.929688 1582.070312 767.390625 1607.589844 L 785.835938 1617.011719 L 782.050781 1640.390625 C 802.492188 1682.519531 825.101562 1692.960938 896.167969 1722.050781 C 896.167969 1722.050781 927.269531 1723.300781 929.804688 1713.96875 C 932.34375 1704.648438 907.53125 1686.261719 907.53125 1686.261719 L 909.632812 1664.941406 L 887.082031 1612.960938 C 887.082031 1612.960938 870.882812 1592.800781 847.105469 1585.058594 C 835.226562 1542.769531 844.480469 1562.230469 803.648438 1497.691406 C 803.648438 1497.691406 777.035156 1486.421875 774.605469 1483.398438 C 772.175781 1480.378906 770.765625 1459.898438 767.324219 1452.488281 C 763.882812 1445.089844 738.773438 1413.851562 729.9375 1405.96875 C 721.101562 1398.101562 683.519531 1388.789062 681.421875 1383.050781 C 676.675781 1370.101562 679.25 1361.800781 669.269531 1356.488281 "/>
<path fill-rule="nonzero" fill="rgb(50.584412%, 66.601562%, 11.376953%)" fill-opacity="1" d="M 682 1470.121094 C 682 1470.121094 670.722656 1430.078125 693.414062 1425.019531 C 716.101562 1419.96875 739.113281 1445.480469 739.113281 1445.480469 C 739.113281 1445.480469 756.71875 1482.988281 751.917969 1492.621094 C 747.117188 1502.25 719.8125 1511.96875 708.730469 1503.378906 C 697.648438 1494.800781 682 1470.121094 682 1470.121094 "/>
<path fill-rule="nonzero" fill="rgb(50.584412%, 66.601562%, 11.376953%)" fill-opacity="1" d="M 768.546875 1557.429688 C 768.546875 1557.429688 779.046875 1536.519531 786.992188 1536.308594 C 794.933594 1536.089844 823.816406 1543.960938 829.589844 1550.089844 C 835.363281 1556.210938 848.421875 1576.710938 848.046875 1585.789062 C 847.667969 1594.878906 842.585938 1605.621094 837.769531 1609.988281 C 832.949219 1614.371094 802.46875 1611.441406 796.363281 1602.121094 C 790.261719 1592.800781 764.644531 1573.210938 768.546875 1557.429688 "/>
<path fill-rule="nonzero" fill="rgb(50.584412%, 66.601562%, 11.376953%)" fill-opacity="1" d="M 850.890625 1660.160156 C 850.890625 1660.160156 845.074219 1646.199219 849.484375 1640.449219 C 853.898438 1634.691406 879.207031 1616.960938 899.757812 1624.53125 C 920.308594 1632.101562 934.972656 1662.828125 927.210938 1674.519531 C 919.453125 1686.21875 893.261719 1691.640625 882.785156 1687.160156 C 872.304688 1682.679688 857.890625 1679.160156 850.890625 1660.160156 "/>
<path fill-rule="nonzero" fill="rgb(7.446289%, 28.637695%, 7.446289%)" fill-opacity="1" d="M 595.191406 1588.691406 C 590.4375 1614.769531 597.230469 1617.269531 643.882812 1689.671875 C 674.273438 1712.410156 683.855469 1716.019531 721 1723.378906 C 734.441406 1749.730469 761.914062 1758.570312 798.140625 1769.171875 L 818.960938 1769.429688 L 826.296875 1791.941406 C 863.871094 1820.441406 888.796875 1819.800781 965.855469 1814.351562 C 965.855469 1814.351562 994.253906 1801.730469 992.246094 1792.289062 C 990.238281 1782.859375 959.605469 1777.421875 959.605469 1777.421875 L 951.710938 1757.5 L 907.695312 1721.121094 C 907.695312 1721.121094 883.953125 1710.300781 859.128906 1713.898438 C 829.109375 1681.449219 846.316406 1694.71875 780.183594 1655.210938 C 780.183594 1655.210938 751.203125 1656.921875 747.644531 1655.300781 C 744.082031 1653.679688 733.429688 1636.039062 726.953125 1630.960938 C 720.480469 1625.890625 683.6875 1609.121094 672.167969 1606.011719 C 660.652344 1602.890625 622.757812 1611.179688 618.25 1607 C 608.035156 1597.519531 606.558594 1589.011719 595.191406 1588.691406 "/>
<path fill-rule="nonzero" fill="rgb(50.584412%, 66.601562%, 11.376953%)" fill-opacity="1" d="M 658.695312 1684.351562 C 658.695312 1684.351562 630.246094 1653.640625 648.226562 1639.109375 C 666.210938 1624.589844 698.496094 1637.171875 698.496094 1637.171875 C 698.496094 1637.171875 731.453125 1662.828125 731.574219 1673.539062 C 731.695312 1684.238281 711.71875 1704.960938 697.867188 1702.191406 C 684.015625 1699.429688 658.695312 1684.351562 658.695312 1684.351562 "/>
<path fill-rule="nonzero" fill="rgb(50.584412%, 66.601562%, 11.376953%)" fill-opacity="1" d="M 747.085938 1723.199219 C 747.085938 1723.199219 748.753906 1699.980469 756.035156 1696.828125 C 763.3125 1693.671875 793.125 1690.21875 800.84375 1693.730469 C 808.558594 1697.25 828.570312 1711.339844 831.726562 1719.871094 C 834.886719 1728.410156 834.316406 1740.21875 831.539062 1746.050781 C 828.761719 1751.890625 799.378906 1760.511719 790.121094 1754.160156 C 780.863281 1747.820312 749.5625 1739.230469 747.085938 1723.199219 "/>
<path fill-rule="nonzero" fill="rgb(50.584412%, 66.601562%, 11.376953%)" fill-opacity="1" d="M 848.757812 1805.601562 C 848.757812 1805.601562 837.980469 1794.859375 839.851562 1787.898438 C 841.71875 1780.949219 858.335938 1755.148438 880.308594 1754.511719 C 902.277344 1753.871094 927.730469 1776.828125 925.050781 1790.511719 C 922.371094 1804.199219 900.183594 1818.941406 888.742188 1818.699219 C 877.304688 1818.460938 862.578125 1820.558594 848.757812 1805.601562 "/>
<path fill-rule="nonzero" fill="rgb(50.584412%, 66.601562%, 11.376953%)" fill-opacity="1" d="M 766.601562 1853.269531 C 766.601562 1853.269531 763.121094 1867.988281 756.140625 1870.199219 C 749.160156 1872.398438 718.109375 1872.570312 705.84375 1854.71875 C 693.574219 1836.871094 699.738281 1803.410156 712.941406 1798.238281 C 726.140625 1793.070312 750.652344 1803.488281 756.546875 1813.089844 C 762.4375 1822.691406 772.097656 1833.75 766.601562 1853.269531 "/>
<path fill-rule="nonzero" fill="rgb(50.584412%, 66.601562%, 11.376953%)" fill-opacity="1" d="M 664.742188 1828.019531 C 664.742188 1828.019531 658.234375 1839.558594 651.847656 1839.769531 C 645.460938 1839.988281 619.402344 1832.828125 613.476562 1814.960938 C 607.550781 1797.101562 620.878906 1770.449219 633.203125 1769.210938 C 645.523438 1767.96875 663.519531 1782.46875 666.117188 1791.921875 C 668.710938 1801.359375 674.109375 1812.921875 664.742188 1828.019531 "/>
<path fill-rule="nonzero" fill="rgb(50.584412%, 66.601562%, 11.376953%)" fill-opacity="1" d="M 1015.808594 1733.640625 C 1015.808594 1733.640625 1000.738281 1736.761719 995.796875 1731.480469 C 990.851562 1726.191406 977.777344 1698.609375 989.1875 1680.128906 C 1000.589844 1661.648438 1034.121094 1652.988281 1044.390625 1662.570312 C 1054.660156 1672.140625 1055.230469 1698.371094 1048.789062 1707.679688 C 1042.359375 1717 1036.148438 1730.28125 1015.808594 1733.640625 "/>
<path fill-rule="nonzero" fill="rgb(50.584412%, 66.601562%, 11.376953%)" fill-opacity="1" d="M 860.554688 236.011719 C 821.703125 232.378906 825.460938 232.578125 825.351562 233.058594 C 820.726562 222.558594 814.136719 206.960938 812.171875 199.210938 C 809.039062 186.898438 826.214844 168.421875 823.09375 173.890625 C 819.964844 179.359375 838.691406 212.199219 838.691406 205.359375 C 838.691406 198.519531 854.304688 154.738281 854.304688 154.738281 C 857.425781 155.421875 862.050781 214.261719 862.050781 214.261719 L 880.050781 196.46875 C 880.585938 208.171875 868.347656 225.941406 860.554688 236.011719 "/>
<path fill-rule="nonzero" fill="rgb(50.584412%, 66.601562%, 11.376953%)" fill-opacity="1" d="M 880.074219 601.46875 L 852.738281 593.261719 L 841.035156 626.101562 L 830.109375 618.570312 L 830.109375 594.628906 C 823.871094 598.738281 791.097656 612.410156 791.097656 612.410156 L 818.410156 585.46875 C 818.933594 585.289062 831.929688 585.589844 863.285156 583.828125 L 880.074219 601.46875 "/>
<path fill-rule="nonzero" fill="rgb(48.631287%, 3.137207%, 18.431091%)" fill-opacity="1" d="M 979.941406 361.339844 C 959.65625 307.980469 873.8125 270.351562 873.8125 270.351562 L 862.050781 236.148438 C 822.597656 232.46875 825.46875 232.550781 825.351562 233.058594 C 824.515625 236.890625 816.308594 273.640625 806.707031 283.359375 C 796.558594 293.609375 713.054688 348.339844 700.574219 370.238281 C 688.085938 392.121094 678.726562 461.21875 686.53125 482.429688 C 694.324219 503.640625 748.949219 574.789062 771.46875 582.320312 C 794.367188 589.980469 910.523438 582.140625 940.929688 576.160156 C 972.136719 570 982.285156 530.320312 1000.230469 505 C 1018.179688 479.699219 1000.230469 414.710938 979.941406 361.339844 "/>
<path fill-rule="nonzero" fill="rgb(100%, 100%, 100%)" fill-opacity="1" d="M 787.503906 575.359375 C 768.746094 557.621094 725.730469 504.820312 720.617188 475.511719 C 716.636719 452.808594 722.449219 426.949219 728.703125 404.769531 C 748.226562 335.480469 812.707031 312.058594 824.441406 254.710938 C 824.710938 253.359375 827.050781 253.929688 826.773438 255.269531 C 814.523438 315.179688 749.53125 334.078125 729.308594 411.761719 C 723.339844 434.730469 718.199219 459.820312 724.746094 482.761719 C 731.308594 505.910156 771.40625 557.019531 789.226562 573.859375 C 790.28125 574.859375 788.570312 576.371094 787.503906 575.359375 "/>
<path fill-rule="nonzero" fill="rgb(100%, 100%, 100%)" fill-opacity="1" d="M 768.96875 443.898438 C 769.769531 465.800781 783.628906 539.398438 808.429688 574.421875 C 809.257812 575.578125 807.15625 576.660156 806.332031 575.488281 C 791.496094 554.488281 784.0625 531.339844 777.9375 506.339844 C 760.207031 434.171875 762.34375 421.488281 789.324219 370.691406 C 811.394531 329.148438 834.53125 288.191406 834.53125 241.949219 C 834.519531 240.570312 836.945312 240.578125 836.957031 241.949219 C 836.957031 324.640625 766.761719 383.460938 768.96875 443.898438 "/>
<path fill-rule="nonzero" fill="rgb(100%, 100%, 100%)" fill-opacity="1" d="M 845.394531 571.988281 C 845.175781 573.359375 842.832031 572.769531 843.050781 571.429688 C 852.804688 510.238281 840.269531 490.039062 840.269531 372.5 C 840.269531 327.25 843.085938 244.53125 843.28125 243.671875 C 849.019531 215.871094 839.078125 340.070312 844.398438 444.941406 C 846.714844 491.058594 853.292969 522.390625 845.394531 571.988281 "/>
<path fill-rule="nonzero" fill="rgb(100%, 100%, 100%)" fill-opacity="1" d="M 867.378906 570.75 C 866.480469 571.859375 864.378906 570.789062 865.277344 569.671875 C 887.851562 541.828125 901.59375 508.25 903.699219 472.75 C 904.71875 455.671875 904.871094 401.019531 898.925781 370.148438 C 893.980469 344.410156 886.757812 329.289062 874.878906 308.648438 C 838.121094 244.710938 851.140625 248.441406 851.453125 250.269531 C 859.015625 293.988281 892.902344 312.71875 902.847656 378.789062 C 907.398438 409.050781 907.34375 464.859375 905.277344 482.410156 C 901.507812 514.398438 888.277344 544.890625 867.378906 570.75 "/>
<path fill-rule="nonzero" fill="rgb(100%, 100%, 100%)" fill-opacity="1" d="M 949.425781 518.308594 C 938.960938 537.640625 923.53125 554.898438 904.328125 568.148438 C 903.113281 568.980469 901.390625 567.488281 902.617188 566.640625 C 924.191406 551.800781 941.125 531.699219 951.378906 509.078125 C 968.253906 471.929688 963.476562 439.988281 953.226562 404.078125 C 941.167969 361.828125 930.792969 325.289062 888.753906 291.851562 C 878.328125 283.511719 855.1875 269.730469 859.984375 250.601562 C 860.324219 249.261719 862.65625 249.828125 862.328125 251.160156 C 854.0625 283.949219 917.382812 280.53125 947.980469 378.238281 C 964.191406 430.03125 975.730469 469.699219 949.425781 518.308594 "/>
<path fill-rule="nonzero" fill="rgb(7.446289%, 28.637695%, 7.446289%)" fill-opacity="1" d="M 2410.289062 1531.050781 C 2411.359375 1544.53125 2386.019531 1580.539062 2365.199219 1588.289062 C 2349.839844 1594.011719 2325.238281 1585.320312 2311.269531 1577.519531 C 2259.78125 1602.390625 2237.808594 1610.941406 2194.960938 1590.320312 C 2194.019531 1620.539062 2155.390625 1630.941406 2127.480469 1636.621094 C 2119.75 1638.191406 2084.03125 1595.769531 2075.671875 1580.351562 C 2067.308594 1564.921875 2089.679688 1531.230469 2101.859375 1515.050781 C 2114.03125 1498.859375 2141.570312 1506.960938 2141.570312 1506.960938 C 2127.230469 1487.601562 2137.078125 1468.460938 2136.359375 1456.609375 C 2135.640625 1444.761719 2193.089844 1405.648438 2257.289062 1399.289062 C 2321.488281 1392.949219 2337.25 1461.011719 2337.25 1461.011719 C 2388.050781 1456.570312 2409.238281 1517.550781 2410.289062 1531.050781 "/>
<path fill-rule="nonzero" fill="rgb(50.584412%, 66.601562%, 11.376953%)" fill-opacity="1" d="M 2368.769531 1856.488281 C 2364.441406 1873.671875 2298.910156 1873.539062 2287.621094 1873.378906 L 2261.539062 1704.390625 C 2261.429688 1798.199219 2272.238281 1781.210938 2275.738281 1856.128906 C 2259.46875 1854.539062 2223.578125 1846.199219 2223.578125 1846.199219 L 2219.839844 1669.210938 L 2169.339844 1623.789062 C 2177.46875 1619.589844 2184.921875 1614.070312 2189.671875 1606.878906 L 2227.269531 1629.988281 L 2211.539062 1596.851562 C 2256.03125 1611.449219 2236.699219 1587.371094 2256.859375 1623.980469 L 2254.390625 1600.289062 C 2262.710938 1598.03125 2272.71875 1594.28125 2282.03125 1590.46875 L 2285.640625 1645.53125 L 2314.121094 1579.011719 C 2318.21875 1581.070312 2326.289062 1584.789062 2335.46875 1587.378906 C 2327.609375 1615.5 2315.699219 1657.761719 2313.539062 1663.839844 C 2310.269531 1673.070312 2368.769531 1856.488281 2368.769531 1856.488281 "/>
<path fill-rule="nonzero" fill="rgb(76.951599%, 60.742188%, 37.646484%)" fill-opacity="1" d="M 2677.351562 214.441406 C 2616.601562 258.238281 2606.238281 260.890625 2559.539062 275.820312 C 2515.898438 289.859375 2449.640625 309.648438 2404.730469 317.609375 C 2424.609375 312.128906 2386.671875 308.539062 2546.238281 249.910156 C 2639.039062 216.011719 2631.738281 232.539062 2677.351562 214.441406 "/>
<path fill-rule="nonzero" fill="rgb(86.71875%, 85.9375%, 62.304688%)" fill-opacity="1" d="M 2556.78125 475.429688 C 2547.609375 475.429688 2514.839844 453.570312 2522.699219 440.710938 C 2530.570312 427.859375 2541.050781 337.859375 2541.050781 317.609375 C 2541.050781 303.039062 2531.550781 270.910156 2527.269531 257.011719 C 2533.621094 254.601562 2539.980469 252.210938 2546.238281 249.910156 C 2552.910156 262.730469 2570.960938 297.609375 2576.160156 310.859375 C 2583.71875 330.148438 2565.960938 475.429688 2556.78125 475.429688 "/>
<path fill-rule="nonzero" fill="rgb(47.851562%, 31.762695%, 20.776367%)" fill-opacity="1" d="M 2677.378906 214.429688 C 2677.050781 214.429688 2653.300781 224.628906 2619.710938 227.929688 C 2599.378906 229.921875 2546.328125 249.769531 2527.269531 257.011719 C 2389.539062 309.480469 2423.449219 312.449219 2404.730469 317.609375 C 2394.238281 320.488281 2400.800781 288.988281 2404.730469 274.859375 C 2408.671875 260.710938 2503.050781 157.859375 2503.050781 157.859375 C 2539.75 142.429688 2559.410156 160.429688 2576.160156 157.859375 C 2592.898438 155.28125 2673.449219 173.28125 2686.558594 179.710938 C 2699.671875 186.148438 2677.378906 214.429688 2677.378906 214.429688 "/>
<path fill-rule="nonzero" fill="rgb(76.951599%, 60.742188%, 37.646484%)" fill-opacity="1" d="M 2852.070312 393.351562 C 2809.808594 388.640625 2793.449219 390.109375 2687.488281 334.71875 C 2671.128906 326.160156 2656.578125 317.050781 2656.578125 317.050781 C 2669.921875 323.75 2651.449219 303.558594 2765.101562 349.179688 C 2831.039062 375.789062 2818.941406 381.019531 2852.070312 393.351562 "/>
<path fill-rule="nonzero" fill="rgb(86.71875%, 85.9375%, 62.304688%)" fill-opacity="1" d="M 2658.210938 473.390625 C 2653.359375 468.988281 2646.949219 441.730469 2657.511719 438.699219 C 2668.078125 435.679688 2718.511719 393.160156 2728.601562 382.460938 C 2735.851562 374.78125 2746.820312 353.328125 2751.539062 343.820312 C 2756.101562 345.601562 2760.648438 347.390625 2765.101562 349.179688 C 2762.230469 359.160156 2754.378906 386.25 2750.519531 395.730469 C 2744.890625 409.558594 2663.058594 477.800781 2658.210938 473.390625 "/>
<path fill-rule="nonzero" fill="rgb(47.851562%, 31.762695%, 20.776367%)" fill-opacity="1" d="M 2852.089844 393.351562 C 2851.898438 393.179688 2834.320312 387.21875 2814.890625 372.808594 C 2803.148438 364.109375 2765.210938 349.148438 2751.539062 343.820312 C 2652.589844 305.46875 2669.039062 323.308594 2656.578125 317.050781 C 2649.589844 313.550781 2668.761719 300.050781 2677.898438 294.46875 C 2687.03125 288.878906 2788.191406 279.820312 2788.191406 279.820312 C 2815.28125 289.269531 2816.691406 308.210938 2826.820312 314.890625 C 2836.949219 321.570312 2870.53125 369.730469 2874.25 379.410156 C 2877.96875 389.101562 2852.089844 393.351562 2852.089844 393.351562 "/>
<path fill-rule="nonzero" fill="rgb(50.584412%, 66.601562%, 11.376953%)" fill-opacity="1" d="M 283.789062 112.46875 C 283.789062 112.46875 258.179688 134.890625 260.28125 158.128906 C 262.386719 181.378906 253.875 247.328125 258.945312 259.730469 C 264.015625 272.121094 271.8125 300.121094 271.8125 300.121094 C 271.8125 300.121094 270.921875 319.328125 269.992188 323.609375 C 269.0625 327.871094 260.949219 340.570312 267.902344 366.25 C 274.859375 391.929688 269.199219 402.011719 270.492188 409.070312 C 271.78125 416.128906 279.953125 492.761719 278.640625 499.640625 C 277.332031 506.511719 281.824219 534.808594 281.824219 534.808594 L 276.921875 574.71875 C 276.921875 574.71875 285.867188 644.46875 302.28125 651.351562 C 318.699219 658.238281 331.386719 638.421875 331.386719 638.421875 L 317.472656 601.851562 C 323.871094 525 323.714844 553.660156 316.742188 476.640625 C 316.742188 476.640625 317.976562 446.628906 312.664062 431.558594 C 307.351562 416.488281 314.394531 348.890625 311.25 343.191406 C 305.476562 332.75 331.601562 305.558594 297.019531 215.019531 C 316.210938 183.121094 298.742188 174.070312 301.382812 127.621094 C 301.726562 121.609375 283.789062 112.46875 283.789062 112.46875 "/>
<path fill-rule="nonzero" fill="rgb(7.446289%, 28.637695%, 7.446289%)" fill-opacity="1" d="M 404.136719 679.640625 C 404.136719 679.640625 428.65625 653.980469 425.371094 627.871094 C 422.089844 601.75 427.28125 527.421875 421.578125 513.570312 C 415.871094 499.710938 406.648438 468.351562 406.648438 468.351562 C 406.648438 468.351562 406.570312 446.71875 407.289062 441.898438 C 408.003906 437.078125 415.488281 422.660156 407.222656 393.898438 C 398.960938 365.128906 404.117188 353.691406 402.46875 345.78125 C 400.816406 337.859375 388.761719 251.789062 389.730469 244.039062 C 390.695312 236.28125 384.765625 204.53125 384.765625 204.53125 L 387.65625 159.550781 C 387.65625 159.550781 375.175781 81.25 358.386719 73.789062 C 341.597656 66.328125 329.894531 88.839844 329.894531 88.839844 L 345.675781 129.730469 C 343.152344 216.289062 341.859375 184.050781 352.734375 270.570312 C 352.734375 270.570312 353.015625 304.351562 359.097656 321.210938 C 365.175781 338.058594 361.539062 414.230469 364.980469 420.578125 C 371.367188 432.371094 346.429688 463.078125 385.707031 564.511719 C 368.046875 600.828125 386.050781 610.449219 385.75 662.898438 C 385.714844 669.671875 404.136719 679.640625 404.136719 679.640625 "/>
<path fill-rule="nonzero" fill="rgb(50.584412%, 66.601562%, 11.376953%)" fill-opacity="1" d="M 571.9375 115.621094 C 571.9375 115.621094 594.84375 140.539062 590.101562 163.429688 C 585.359375 186.320312 586.304688 252.761719 579.847656 264.558594 C 573.394531 276.359375 562.449219 303.390625 562.449219 303.390625 C 562.449219 303.390625 561.148438 322.589844 561.585938 326.929688 C 562.023438 331.269531 568.640625 344.71875 558.800781 369.539062 C 548.960938 394.351562 553.433594 404.949219 551.347656 411.839844 C 549.257812 418.71875 532.398438 494.058594 532.917969 501.03125 C 533.4375 508.011719 525.90625 535.671875 525.90625 535.671875 L 525.90625 575.851562 C 525.90625 575.851562 509.226562 644.269531 492.121094 649.421875 C 475.015625 654.578125 464.664062 633.570312 464.664062 633.570312 L 482.664062 598.648438 C 485.066406 521.589844 481.953125 550.101562 497.664062 474.238281 C 497.664062 474.238281 499.859375 444.28125 506.855469 429.859375 C 513.855469 415.421875 514.5625 347.488281 518.339844 342.148438 C 525.28125 332.351562 502.375 302.691406 547.097656 216.199219 C 531.652344 182.511719 550.050781 175.328125 552.71875 128.871094 C 553.066406 122.859375 571.9375 115.621094 571.9375 115.621094 "/>
<path fill-rule="nonzero" fill="rgb(50.584412%, 66.601562%, 11.376953%)" fill-opacity="1" d="M 138.960938 125.921875 C 138.960938 125.921875 118.21875 150.78125 123.328125 173.949219 C 128.488281 197.339844 129.554688 267.210938 136.1875 279.609375 C 142.84375 292.039062 154.429688 320.878906 154.429688 320.878906 C 154.429688 320.878906 156.429688 341.941406 156.167969 346.78125 C 155.90625 351.628906 149.910156 367.160156 160.574219 394.449219 C 171.328125 421.980469 167.351562 434.648438 169.722656 442.441406 C 172.101562 450.261719 192.546875 538.039062 192.382812 546.601562 C 192.214844 555.199219 201.460938 588.261719 201.460938 588.261719 L 203.34375 638.921875 C 203.34375 638.921875 224.773438 724.691406 242.722656 728.039062 C 260.523438 731.359375 269.363281 701.949219 269.363281 701.949219 L 248.789062 660.460938 C 241.519531 569.070312 247.109375 603.628906 225.875 509.839844 C 225.875 509.839844 221.953125 474.871094 214.332031 458.851562 C 206.738281 442.890625 202.480469 366.289062 198.601562 360.660156 C 191.507812 350.359375 211.597656 316.621094 165.714844 227.339844 C 178.773438 192.269531 161.371094 185.578125 157.164062 139.03125 C 156.628906 133.101562 138.960938 125.921875 138.960938 125.921875 "/>
<path fill-rule="nonzero" fill="rgb(7.446289%, 28.637695%, 7.446289%)" fill-opacity="1" d="M 471.472656 910.78125 C 471.464844 919.46875 379.519531 1152.96875 360.957031 1285.28125 C 336.921875 1211.390625 375.546875 1290.800781 271.554688 1052.828125 C 258.425781 957.539062 236.222656 803.808594 227.925781 791.039062 C 223.230469 783.808594 235.289062 780.261719 252.53125 779.328125 C 253.707031 791.699219 266.207031 915.210938 279.261719 1011.910156 C 279.597656 1014.449219 283.664062 1014.128906 283.324219 1011.570312 C 279.121094 980.421875 261.894531 835.128906 256.609375 779.160156 C 264.753906 778.910156 273.78125 779.191406 282.609375 779.898438 C 283.796875 840.53125 286.808594 906.730469 291.894531 973.789062 C 292.089844 976.359375 296.152344 976.011719 295.957031 973.441406 C 291.550781 915.011719 287.910156 841.140625 286.691406 780.25 C 295.460938 781.089844 303.875 782.351562 310.832031 783.910156 C 308.328125 870.261719 308.621094 953.570312 311.398438 1036.871094 C 311.484375 1039.441406 315.546875 1039.089844 315.464844 1036.53125 C 312.367188 944.179688 312.695312 847.570312 314.867188 784.898438 C 320.8125 786.488281 325.300781 788.339844 327.40625 790.371094 C 337.402344 800.011719 328.980469 987.96875 336.960938 1097.519531 C 354.164062 992.941406 377.078125 860.351562 384.035156 852.390625 C 387.871094 848.019531 398.734375 851.878906 411.566406 859.351562 C 409.382812 866.300781 356.578125 1043.910156 355.941406 1046.171875 C 355.242188 1048.648438 359.261719 1049.359375 359.953125 1046.890625 C 364.941406 1029.128906 412.386719 870.191406 415.132812 861.480469 C 420.480469 864.78125 426.082031 868.589844 431.59375 872.628906 C 425.1875 892.269531 345.90625 1153.089844 345.050781 1156.121094 C 344.339844 1158.609375 348.347656 1159.308594 349.050781 1156.859375 C 355.902344 1132.808594 427.742188 897.429688 435.003906 875.179688 C 441.636719 880.179688 448.015625 885.410156 453.546875 890.320312 C 448.058594 906.050781 373.875 1132.289062 373.054688 1134.929688 C 372.292969 1137.390625 376.3125 1138.089844 377.066406 1135.648438 C 383.601562 1114.53125 450.574219 911.089844 456.804688 893.25 C 465.5625 901.320312 471.46875 908.089844 471.472656 910.78125 "/>
<path fill-rule="nonzero" fill="rgb(86.71875%, 85.9375%, 62.304688%)" fill-opacity="1" d="M 378.585938 1334.949219 L 453.308594 1835.730469 C 453.308594 1835.730469 455.996094 1879.691406 429.921875 1890.109375 C 403.84375 1900.519531 345.609375 1877.96875 340.875 1851.761719 C 336.140625 1825.539062 322.367188 1362.28125 290.21875 1281.019531 C 258.0625 1199.75 119.914062 908.929688 86.964844 832.921875 L 156.90625 794.460938 C 444.46875 1433.96875 299.59375 1129.210938 378.585938 1334.949219 "/>
<path fill-rule="nonzero" fill="rgb(7.446289%, 28.637695%, 7.446289%)" fill-opacity="1" d="M 1300.511719 1487.761719 C 1346.398438 1471.738281 1331.808594 1495.75 1338.050781 1451.808594 C 1340.710938 1433.160156 1382.988281 1422.039062 1382.988281 1422.039062 C 1386.878906 1417.089844 1374.980469 1400.460938 1374.980469 1400.460938 C 1374.980469 1400.460938 1337.640625 1405.078125 1321.28125 1420.890625 C 1312.128906 1429.738281 1305.011719 1461.5 1300.511719 1487.761719 "/>
<path fill-rule="nonzero" fill="rgb(100%, 56.834412%, 0%)" fill-opacity="1" d="M 1501.789062 1582.988281 C 1477.898438 1508.21875 1443.648438 1490.429688 1401.578125 1499.46875 C 1393.128906 1504.871094 1393.539062 1473.789062 1335.21875 1480.128906 C 1306.820312 1483.289062 1260 1498.191406 1263.710938 1521.441406 C 1210.210938 1476.011719 1142.53125 1569.210938 1150.578125 1638.410156 C 1160.050781 1688.480469 1225.46875 1815.179688 1252.039062 1833.25 C 1278.601562 1851.328125 1279.78125 1864.238281 1299.300781 1862.621094 C 1318.820312 1861 1347.539062 1855.75 1368.601562 1843.800781 C 1400.878906 1852.828125 1447.808594 1839.621094 1458.191406 1816.109375 C 1468.558594 1792.601562 1525.679688 1657.761719 1501.789062 1582.988281 "/>
<path fill-rule="nonzero" fill="rgb(100%, 100%, 100%)" fill-opacity="1" d="M 1417.351562 1599.171875 C 1432.019531 1623.601562 1472.078125 1576.609375 1463.21875 1565 C 1449.210938 1546.71875 1463.359375 1551.910156 1440.960938 1547.128906 C 1440.960938 1547.128906 1423.328125 1551.929688 1419.929688 1563.25 C 1415.609375 1577.558594 1417.351562 1599.171875 1417.351562 1599.171875 "/>
<path fill-rule="nonzero" fill="rgb(100%, 100%, 100%)" fill-opacity="1" d="M 1435.769531 1660.328125 C 1445.300781 1673.53125 1467.929688 1653.109375 1462.21875 1646.660156 C 1453.300781 1636.539062 1461.890625 1640.140625 1448.328125 1636.140625 C 1437.769531 1637.269531 1432.789062 1641.300781 1435.769531 1660.328125 "/>
<path fill-rule="nonzero" fill="rgb(7.446289%, 28.637695%, 7.446289%)" fill-opacity="1" d="M 1140.320312 1024.171875 C 1140.320312 1024.171875 1178.679688 1030.839844 1182.210938 1045.539062 C 1193.550781 1092.550781 1175.339844 1071 1220.28125 1081.199219 C 1214.761719 1059.480469 1205.21875 1027.640625 1195.199219 1020.089844 C 1179.628906 1008.359375 1146.089844 1006.601562 1146.089844 1006.601562 C 1146.089844 1006.601562 1136.558594 1020.429688 1140.320312 1024.171875 "/>
<path fill-rule="nonzero" fill="rgb(80.859375%, 0%, 0%)" fill-opacity="1" d="M 1098.261719 1341.378906 C 1108.980469 1359.539062 1140.070312 1370.570312 1168.25 1361.75 C 1196.429688 1352.910156 1225.179688 1369.921875 1242.671875 1370.210938 C 1260.140625 1370.488281 1260.378906 1360.171875 1282.890625 1344.429688 C 1305.398438 1328.691406 1349.859375 1169.488281 1349.859375 1169.488281 C 1343.539062 1089.949219 1262.289062 1061.058594 1238.46875 1096.488281 C 1240.109375 1079.898438 1206.328125 1078.769531 1188.019531 1077.121094 C 1168.761719 1075.46875 1153.058594 1083.921875 1145.25 1094.941406 C 1145.25 1094.941406 1140.621094 1093.710938 1112.980469 1079.011719 C 1085.339844 1064.308594 1061.261719 1097.558594 1044.710938 1158.25 C 1028.160156 1218.921875 1087.539062 1323.21875 1098.261719 1341.378906 "/>
<path fill-rule="nonzero" fill="rgb(100%, 100%, 100%)" fill-opacity="1" d="M 1303.648438 1122.289062 C 1290.109375 1124.640625 1281.949219 1130.730469 1281.078125 1160.660156 C 1290.320312 1180.53125 1325.148438 1147.300781 1319.28125 1137.679688 C 1310.121094 1122.671875 1320.449219 1127.601562 1303.648438 1122.289062 "/>
<path fill-rule="nonzero" fill="rgb(100%, 100%, 100%)" fill-opacity="1" d="M 1296.160156 1173.171875 C 1288 1173.28125 1283.75 1175.96875 1284.449219 1190.898438 C 1290.691406 1201.769531 1309.808594 1187.648438 1305.96875 1182.28125 C 1299.988281 1173.910156 1306.25 1177.238281 1296.160156 1173.171875 "/>
<path fill-rule="nonzero" fill="rgb(73.631287%, 52.146912%, 23.535156%)" fill-opacity="1" d="M 2417.859375 879.210938 C 2412.039062 927.179688 2314.878906 993.589844 2289.640625 986.03125 C 2264.398438 978.46875 2248.378906 975 2248.378906 975 C 2248.378906 975 2180.289062 976.371094 2155.308594 944.070312 C 2130.339844 911.769531 2107.910156 866.078125 2109.019531 831.101562 C 2110.128906 796.121094 2133.121094 763.019531 2133.121094 763.019531 L 2185.109375 713.871094 L 2259.351562 717.5 C 2259.351562 717.5 2216.351562 707.03125 2180.660156 701.539062 C 2180.550781 697.339844 2196.769531 627.511719 2207.988281 609.371094 C 2219.238281 591.179688 2262.039062 576.640625 2262.039062 576.640625 C 2262.039062 576.640625 2319.679688 577.609375 2342.628906 579.691406 C 2357.839844 581.058594 2381 612.449219 2394.898438 633.480469 C 2410.710938 657.421875 2401.359375 675.46875 2385.949219 743.289062 C 2400.878906 752.421875 2423.671875 831.230469 2417.859375 879.210938 "/>
<path fill-rule="nonzero" fill="rgb(47.851562%, 31.762695%, 20.776367%)" fill-opacity="1" d="M 2163.429688 802.140625 C 2163.429688 802.140625 2169.328125 791.628906 2177.46875 792.039062 C 2187.78125 792.570312 2202.109375 798.820312 2202.109375 798.820312 C 2216.398438 814.269531 2178.738281 829.699219 2172.210938 821.078125 C 2161.988281 807.589844 2163.429688 818.039062 2163.429688 802.140625 "/>
<path fill-rule="nonzero" fill="rgb(47.851562%, 31.762695%, 20.776367%)" fill-opacity="1" d="M 2350.441406 913.359375 C 2347.921875 902.289062 2350.070312 895.75 2368.238281 890.570312 C 2383.429688 894.351562 2372.378906 925.480469 2364.621094 922.601562 C 2352.570312 918.140625 2358.578125 925.039062 2350.441406 913.359375 "/>
<path fill-rule="nonzero" fill="rgb(47.851562%, 31.762695%, 20.776367%)" fill-opacity="1" d="M 2162.949219 842.421875 C 2172.171875 842.691406 2176.820312 845.820312 2175.648438 862.539062 C 2168.371094 874.609375 2147.199219 858.449219 2151.671875 852.46875 C 2158.628906 843.160156 2151.488281 846.800781 2162.949219 842.421875 "/>
<path fill-rule="nonzero" fill="rgb(47.851562%, 31.762695%, 20.776367%)" fill-opacity="1" d="M 2241.640625 606.261719 C 2250.859375 606.53125 2255.511719 609.660156 2254.339844 626.378906 C 2247.070312 638.449219 2225.890625 622.289062 2230.359375 616.308594 C 2237.320312 607 2230.179688 610.640625 2241.640625 606.261719 "/>
<path fill-rule="nonzero" fill="rgb(47.851562%, 31.762695%, 20.776367%)" fill-opacity="1" d="M 2336.238281 679.929688 C 2339.660156 671.660156 2344.21875 668.320312 2359.890625 675.261719 C 2368.921875 686.179688 2346.058594 699.96875 2341.910156 693.800781 C 2335.449219 684.179688 2336.429688 691.988281 2336.238281 679.929688 "/>
<path fill-rule="nonzero" fill="rgb(80.859375%, 0%, 0%)" fill-opacity="1" d="M 1706.078125 1560.269531 C 1653.378906 1589.96875 1687.898438 1568.859375 1705.640625 1560.03125 C 1705.929688 1560.191406 1706.078125 1560.269531 1706.078125 1560.269531 "/>
<path fill-rule="nonzero" fill="rgb(80.859375%, 0%, 0%)" fill-opacity="1" d="M 1959.699219 1719.230469 C 1947.671875 1739.890625 1899.441406 1774.210938 1848.640625 1808.351562 C 1797.851562 1842.488281 1748 1840.550781 1692.871094 1818.71875 C 1637.738281 1796.878906 1617.25 1773.5 1605.839844 1744.398438 C 1594.429688 1715.289062 1613.179688 1682.871094 1617.039062 1644.550781 C 1619.351562 1621.519531 1638.820312 1602.839844 1653.988281 1591.601562 C 1677.03125 1587.230469 1706.578125 1580.820312 1706.578125 1580.820312 C 1697.671875 1593.398438 1675.679688 1614.371094 1675.679688 1614.371094 C 1692.128906 1608.160156 1727.28125 1582.230469 1727.28125 1582.230469 C 1739.28125 1612.859375 1755.128906 1625.289062 1755.621094 1625.671875 C 1746.359375 1608.441406 1745.820312 1571.78125 1745.820312 1571.78125 C 1773.058594 1599.519531 1821.421875 1600.871094 1801.738281 1595.621094 C 1786.898438 1591.660156 1767.148438 1573.371094 1757.019531 1561.800781 C 1791.730469 1563.679688 1827.128906 1548.019531 1827.128906 1548.019531 C 1792.96875 1554 1764.039062 1547.621094 1764.039062 1547.621094 C 1770.039062 1544.28125 1775.25 1540.128906 1779.710938 1535.71875 C 1825.320312 1528.070312 1866.578125 1533.371094 1885.5 1536.378906 C 1906.96875 1539.800781 1954.730469 1607.039062 1966.871094 1650.851562 C 1979 1694.660156 1971.730469 1698.558594 1959.699219 1719.230469 "/>
<path fill-rule="nonzero" fill="rgb(7.446289%, 28.637695%, 7.446289%)" fill-opacity="1" d="M 1745.820312 1571.78125 C 1745.820312 1571.78125 1746.359375 1608.441406 1755.621094 1625.671875 C 1755.128906 1625.289062 1739.28125 1612.859375 1727.28125 1582.230469 C 1727.28125 1582.230469 1692.128906 1608.160156 1675.679688 1614.371094 C 1675.679688 1614.371094 1697.671875 1593.398438 1706.578125 1580.820312 C 1706.578125 1580.820312 1677.03125 1587.230469 1653.988281 1591.601562 C 1668.910156 1580.550781 1696.898438 1565.441406 1706.078125 1560.269531 C 1691.761719 1552.78125 1667.421875 1535.480469 1661.179688 1519.601562 C 1661.179688 1519.601562 1708.800781 1551.179688 1726.121094 1550.410156 C 1726.121094 1550.410156 1707.148438 1498.808594 1723.511719 1444.25 L 1737.621094 1448.140625 C 1737.621094 1448.140625 1719.519531 1491.839844 1748.589844 1541.929688 C 1748.589844 1541.929688 1784.371094 1519.21875 1800.960938 1503.75 C 1795.058594 1519.460938 1780.960938 1538.210938 1764.039062 1547.621094 C 1764.039062 1547.621094 1792.96875 1554 1827.128906 1548.019531 C 1827.128906 1548.019531 1791.730469 1563.679688 1757.019531 1561.800781 C 1767.160156 1573.378906 1786.898438 1591.660156 1801.738281 1595.621094 C 1821.421875 1600.871094 1773.058594 1599.519531 1745.820312 1571.78125 "/>
<path fill-rule="nonzero" fill="rgb(7.446289%, 28.637695%, 7.446289%)" fill-opacity="1" d="M 1678.03125 1575.890625 C 1664.089844 1585.210938 1663.988281 1584.191406 1653.988281 1591.601562 C 1644.328125 1593.429688 1639.53125 1597.171875 1678.03125 1575.890625 "/>
<path fill-rule="nonzero" fill="rgb(100%, 100%, 100%)" fill-opacity="1" d="M 1840.988281 1563.671875 C 1840.988281 1563.671875 1854.671875 1555.621094 1864.019531 1560.25 C 1875.859375 1566.109375 1888.789062 1580.058594 1888.789062 1580.058594 C 1895.769531 1603.710938 1841.390625 1600.519531 1839.199219 1588.089844 C 1835.800781 1568.78125 1830.699219 1580.328125 1840.988281 1563.671875 "/>
<path fill-rule="nonzero" fill="rgb(100%, 100%, 100%)" fill-opacity="1" d="M 1891.019531 1607.851562 C 1897.980469 1602.070312 1903.601562 1601.230469 1914.179688 1614.5 C 1916.988281 1628.230469 1890.230469 1630.101562 1889.480469 1622.71875 C 1888.300781 1611.160156 1885.46875 1618.640625 1891.019531 1607.851562 "/>
<path fill-rule="nonzero" fill="rgb(50.584412%, 66.601562%, 11.376953%)" fill-opacity="1" d="M 1789.359375 1000.929688 C 1789.359375 1000.929688 1747.011719 1012.53125 1744.480469 1031.078125 C 1743.710938 1036.730469 1742.988281 1044.261719 1742.371094 1052.019531 C 1738.960938 1052.320312 1718.539062 1055.949219 1708.578125 1058.5 C 1712.941406 1034.46875 1719.320312 1008.550781 1727.441406 1000.621094 C 1743.761719 984.710938 1781.191406 979.621094 1781.191406 979.621094 C 1781.191406 979.621094 1793.230469 995.960938 1789.359375 1000.929688 "/>
<path fill-rule="nonzero" fill="rgb(7.446289%, 28.637695%, 7.446289%)" fill-opacity="1" d="M 1863.03125 1373.058594 C 1852.78125 1396.539062 1819 1412.929688 1786.539062 1404.410156 C 1754.089844 1395.890625 1723.5 1419.488281 1703.941406 1421.351562 C 1684.371094 1423.230469 1683.101562 1410.429688 1656.328125 1392.839844 C 1629.550781 1375.269531 1564.179688 1181.53125 1564.179688 1181.53125 C 1563.519531 1082.28125 1651.800781 1039.371094 1681.96875 1081.28125 C 1678.691406 1061.949219 1710.5 1057.558594 1738.378906 1052.558594 C 1757.191406 1049.109375 1776.511719 1058.300781 1786.328125 1071.289062 C 1786.328125 1071.289062 1791.410156 1069.359375 1820.96875 1048.71875 C 1850.519531 1028.078125 1880.761719 1067.269531 1905.230469 1141.148438 C 1929.699219 1215.019531 1873.28125 1349.601562 1863.03125 1373.058594 "/>
<path fill-rule="nonzero" fill="rgb(100%, 100%, 100%)" fill-opacity="1" d="M 1837.949219 1077.609375 C 1837.949219 1077.609375 1853.878906 1076.890625 1859.878906 1085.308594 C 1867.46875 1095.96875 1872.109375 1114.269531 1872.109375 1114.269531 C 1866.851562 1138.300781 1820.480469 1110.28125 1824.570312 1098.289062 C 1830.980469 1079.480469 1820.789062 1087.53125 1837.949219 1077.609375 "/>
<path fill-rule="nonzero" fill="rgb(100%, 100%, 100%)" fill-opacity="1" d="M 1860.660156 1139.769531 C 1869.558594 1137.921875 1874.941406 1139.769531 1877.851562 1156.390625 C 1873.671875 1169.839844 1849.21875 1158.980469 1852.121094 1152.148438 C 1856.628906 1141.511719 1850.578125 1146.679688 1860.660156 1139.769531 "/>
<path fill-rule="nonzero" fill="rgb(48.631287%, 3.137207%, 18.431091%)" fill-opacity="1" d="M 1441.320312 196.199219 C 1437.269531 198.199219 1423.328125 228.46875 1424.460938 234.628906 C 1425.589844 240.800781 1428.769531 256.550781 1431.71875 262.671875 C 1442.179688 284.410156 1484.109375 291.621094 1489.75 271.910156 C 1492.039062 263.910156 1472.480469 239.191406 1474.578125 231.390625 C 1476.671875 223.589844 1464.039062 196.949219 1456.328125 195.769531 C 1448.621094 194.589844 1441.320312 196.199219 1441.320312 196.199219 "/>
<path fill-rule="nonzero" fill="rgb(48.631287%, 3.137207%, 18.431091%)" fill-opacity="1" d="M 1457.589844 437.328125 C 1461.339844 439.839844 1495.089844 437.078125 1500.03125 433.121094 C 1504.980469 429.160156 1517.46875 418.78125 1521.5 413.28125 C 1535.789062 393.761719 1521.851562 354.300781 1501.539062 359.03125 C 1493.300781 360.960938 1480.769531 389.738281 1472.800781 391.730469 C 1464.828125 393.71875 1447.230469 417.488281 1449.921875 424.671875 C 1452.621094 431.859375 1457.589844 437.328125 1457.589844 437.328125 "/>
<path fill-rule="nonzero" fill="rgb(48.631287%, 3.137207%, 18.431091%)" fill-opacity="1" d="M 1287.28125 405.679688 C 1289.308594 409.730469 1317.949219 425.109375 1323.601562 424.398438 C 1329.25 423.679688 1343.660156 421.570312 1349.191406 419.089844 C 1368.808594 410.289062 1373.53125 370.058594 1355.039062 363.378906 C 1347.539062 360.660156 1325.589844 378.109375 1318.28125 375.589844 C 1310.96875 373.078125 1286.921875 383.691406 1286.191406 391.089844 C 1285.460938 398.5 1287.28125 405.679688 1287.28125 405.679688 "/>
<path fill-rule="nonzero" fill="rgb(48.631287%, 3.137207%, 18.431091%)" fill-opacity="1" d="M 1123.511719 171.761719 C 1117.25 171.269531 1080.988281 192.539062 1078.488281 199.261719 C 1075.988281 205.988281 1069.96875 223.339844 1069.730469 231.121094 C 1068.898438 258.71875 1116 291.058594 1135.390625 275.140625 C 1143.25 268.679688 1134.761719 232.671875 1142.261719 226.28125 C 1149.769531 219.898438 1151.019531 186.179688 1142.261719 180.378906 C 1133.511719 174.578125 1123.511719 171.761719 1123.511719 171.761719 "/>
<path fill-rule="nonzero" fill="rgb(48.631287%, 3.137207%, 18.431091%)" fill-opacity="1" d="M 1203.730469 409.21875 C 1202.261719 403.238281 1170.378906 376.039062 1163.089844 375.789062 C 1155.800781 375.550781 1137.109375 375.328125 1129.5 377.53125 C 1102.488281 385.320312 1085.78125 439.28125 1107.230469 452.410156 C 1115.941406 457.738281 1148.199219 438.628906 1156.710938 443.640625 C 1165.230469 448.660156 1198.289062 439.351562 1201.199219 429.390625 C 1204.101562 419.421875 1203.730469 409.21875 1203.730469 409.21875 "/>
<path fill-rule="nonzero" fill="rgb(48.631287%, 3.137207%, 18.431091%)" fill-opacity="1" d="M 1317.339844 266.738281 C 1319.789062 262.828125 1317.699219 232.03125 1314.011719 228.121094 C 1310.308594 224.210938 1300.621094 214.410156 1295.429688 211.621094 C 1277.050781 201.710938 1239.199219 221.390625 1243.390625 239.398438 C 1245.101562 246.710938 1272.328125 253.398438 1274.101562 260.441406 C 1275.871094 267.488281 1298.25 279.738281 1305.140625 276.019531 C 1312.039062 272.289062 1317.339844 266.738281 1317.339844 266.738281 "/>
<path fill-rule="nonzero" fill="rgb(100%, 76.171875%, 0%)" fill-opacity="1" d="M 1109.351562 440.941406 C 1126.21875 419.441406 1160.101562 427.21875 1190.78125 417.898438 C 1202.429688 423.101562 1193.351562 426.050781 1182.390625 424.050781 C 1151.269531 428.480469 1145.148438 426.890625 1141.460938 429.421875 C 1137.539062 432.109375 1121.878906 440.941406 1117.96875 440.941406 L 1109.351562 440.941406 "/>
<path fill-rule="nonzero" fill="rgb(100%, 76.171875%, 0%)" fill-opacity="1" d="M 1121.859375 268.769531 C 1107.300781 248.808594 1126.308594 221.421875 1128.339844 187.730469 C 1139.148438 174.75 1138.71875 185.761719 1131.699219 197.898438 C 1124.128906 230.988281 1120.589844 235.300781 1121.78125 239.199219 C 1123.039062 243.308594 1126.128906 258.941406 1124.769531 262.078125 L 1121.859375 268.769531 "/>
<path fill-rule="nonzero" fill="rgb(100%, 76.171875%, 0%)" fill-opacity="1" d="M 1462.570312 430.789062 C 1457.46875 407.710938 1484.148438 394.339844 1498.539062 367.851562 C 1512.660156 362.390625 1508.351562 371.039062 1497.640625 377.699219 C 1478.671875 401.121094 1474.019531 402.941406 1473.589844 406.671875 C 1473.128906 410.609375 1469.949219 424.789062 1467.589844 426.699219 L 1462.570312 430.789062 "/>
<path fill-rule="nonzero" fill="rgb(100%, 76.171875%, 0%)" fill-opacity="1" d="M 1483.238281 273.839844 C 1466.5 265.550781 1465.648438 237.671875 1452.480469 212.410156 C 1453.089844 198.480469 1457.519531 206.519531 1458.710938 218.351562 C 1468.488281 245.578125 1468.28125 250.128906 1470.628906 252.460938 C 1482.761719 264.519531 1482.371094 269.441406 1483.238281 273.839844 "/>
<path fill-rule="nonzero" fill="rgb(100%, 76.171875%, 0%)" fill-opacity="1" d="M 1292.601562 388.859375 C 1294.140625 389.988281 1291.128906 393.761719 1294.058594 393.761719 C 1297 393.761719 1314.621094 387.640625 1319.609375 390.011719 C 1324.601562 392.378906 1353.980469 384.140625 1355.429688 381.078125 C 1360.519531 370.359375 1350.339844 367.390625 1348.679688 371 L 1349.558594 377.050781 C 1328.730469 388.300781 1332.128906 384.828125 1310.511719 383.960938 L 1297.878906 389.71875 L 1292.601562 388.859375 "/>
<path fill-rule="nonzero" fill="rgb(100%, 76.171875%, 0%)" fill-opacity="1" d="M 1302.410156 270.851562 C 1302.289062 268.96875 1307.160156 268.78125 1305.269531 266.589844 C 1303.371094 264.390625 1287.21875 255.160156 1285.839844 249.890625 C 1284.460938 244.621094 1259.058594 227.960938 1255.738281 228.851562 C 1244.109375 231.980469 1248.378906 241.519531 1252.269531 240.421875 L 1256.398438 235.859375 C 1278.628906 244.171875 1273.71875 243.878906 1287.019531 260.609375 L 1299.660156 266.339844 L 1302.410156 270.851562 "/>
<path fill-rule="nonzero" fill="rgb(48.631287%, 3.137207%, 18.431091%)" fill-opacity="1" d="M 1289.230469 561.480469 C 1291.671875 557.578125 1289.589844 526.769531 1285.890625 522.859375 C 1282.191406 518.949219 1272.5 509.148438 1267.320312 506.359375 C 1248.941406 496.460938 1211.089844 516.128906 1215.28125 534.140625 C 1216.980469 541.449219 1244.21875 548.140625 1245.988281 555.191406 C 1247.761719 562.230469 1270.140625 574.480469 1277.03125 570.761719 C 1283.921875 567.03125 1289.230469 561.480469 1289.230469 561.480469 "/>
<path fill-rule="nonzero" fill="rgb(100%, 76.171875%, 0%)" fill-opacity="1" d="M 1274.289062 565.589844 C 1274.179688 563.710938 1279.050781 563.53125 1277.148438 561.328125 C 1275.25 559.128906 1259.109375 549.898438 1257.730469 544.628906 C 1256.351562 539.359375 1230.941406 522.710938 1227.628906 523.589844 C 1216 526.71875 1220.261719 536.261719 1224.148438 535.160156 L 1228.289062 530.601562 C 1250.511719 538.910156 1245.609375 538.621094 1258.910156 555.351562 L 1271.550781 561.078125 L 1274.289062 565.589844 "/>
<path fill-rule="nonzero" fill="rgb(7.446289%, 28.637695%, 7.446289%)" fill-opacity="1" d="M 1175.949219 799.101562 L 1195.578125 821.890625 C 1195.578125 821.890625 1194.289062 824.628906 1192.148438 829.058594 C 1181.558594 826.160156 1147.671875 816.28125 1141.269531 814.320312 C 1140.019531 813.949219 1139.320312 815.828125 1140.578125 816.210938 C 1157.398438 821.351562 1174.300781 826.25 1191.269531 830.890625 C 1186.519531 840.730469 1178.601562 856.929688 1171.371094 870.671875 C 1149.988281 860.949219 1128.429688 852.359375 1105.058594 850.660156 C 1103.75 850.570312 1103.589844 852.570312 1104.898438 852.660156 C 1128.011719 854.328125 1149.558594 862.929688 1170.441406 872.429688 C 1157.101562 897.578125 1159.320312 895.148438 1129.75 911.949219 C 1107.71875 907.980469 1086.46875 901.320312 1066.070312 891.96875 C 1064.878906 891.421875 1064.199219 893.308594 1065.378906 893.851562 C 1085.011719 902.839844 1105.761719 909.449219 1127.039062 913.480469 C 1104.460938 926.210938 1077.621094 940.339844 1077.621094 940.339844 C 1056.25 941.300781 1023.921875 940.828125 1007.710938 926.710938 C 1007.351562 919.890625 998.480469 930.710938 1081.800781 847.648438 C 1069.871094 852.570312 1035.949219 884.910156 1007.761719 912.691406 C 1008.46875 892.640625 1012.171875 853.679688 1028.660156 812.898438 L 1036.691406 807.171875 C 1036.460938 827.421875 1038.570312 840.980469 1041.980469 861.210938 C 1042.191406 862.480469 1044.199219 862.101562 1043.980469 860.828125 C 1040.480469 840.03125 1038.21875 825.171875 1038.691406 805.75 L 1090.171875 769.078125 C 1088.308594 787.28125 1085.601562 805.390625 1082.109375 822.949219 C 1081.871094 824.210938 1083.898438 824.359375 1084.148438 823.101562 C 1087.78125 804.710938 1090.53125 786.148438 1092.378906 767.511719 L 1137.558594 735.328125 C 1131.710938 750.570312 1127.121094 767.078125 1124.261719 784.640625 C 1124.039062 785.898438 1126.078125 786.050781 1126.289062 784.789062 C 1129.058594 767.789062 1133.628906 751.089844 1139.859375 735 C 1147.820312 735.371094 1180.859375 737.28125 1192.359375 743.621094 C 1165.570312 766.761719 1135 794.550781 1105.398438 823.03125 C 1104.46875 823.929688 1105.78125 825.449219 1106.71875 824.550781 C 1135.089844 797.289062 1164.011719 770.808594 1194.121094 744.761719 C 1204.179688 752.261719 1208.199219 795.828125 1210.179688 803.671875 L 1175.949219 799.101562 "/>
<path fill-rule="nonzero" fill="rgb(7.446289%, 28.637695%, 7.446289%)" fill-opacity="1" d="M 916.058594 733.640625 C 906.539062 778.039062 907.53125 773.058594 907.386719 774.871094 C 884.582031 780.359375 858.699219 778.660156 837.351562 791.539062 C 836.242188 792.21875 837.121094 794.019531 838.238281 793.339844 C 858.78125 780.949219 884.730469 782.03125 907.222656 776.921875 L 906.15625 790.261719 L 882.121094 796.148438 L 888.035156 812.730469 C 888.035156 812.730469 894.707031 812.648438 886.109375 846.738281 C 877.121094 852.839844 868.902344 854.171875 829.898438 862.609375 C 828.621094 862.890625 828.992188 864.859375 830.285156 864.578125 C 868.585938 856.269531 876.875 854.71875 885.378906 849.601562 C 876.785156 880.671875 842.164062 915.648438 818.449219 934.601562 C 815.601562 913.28125 829.363281 790.109375 831.808594 767.769531 C 796.253906 920.058594 820.675781 938.550781 802.324219 906.070312 C 769.773438 822.660156 754.847656 813.101562 761.339844 762 C 770.003906 794.171875 785.917969 827.910156 808.261719 857.851562 C 809.039062 858.890625 810.585938 857.589844 809.820312 856.550781 C 787.679688 826.910156 771.378906 792.898438 762.066406 756.878906 C 763.300781 749.238281 764.640625 744.539062 764.640625 744.539062 L 798.863281 728.019531 C 805.664062 749.160156 812.363281 767.980469 819.796875 787.25 C 820.265625 788.449219 822.101562 787.578125 821.636719 786.378906 C 814.078125 766.828125 807.09375 747.070312 800.703125 727.128906 L 808.40625 723.410156 C 808.1875 716.671875 819.765625 684.101562 825.789062 679.761719 C 828.890625 725.710938 838.707031 720.199219 836.664062 717.75 C 829.972656 709.640625 828.992188 698.210938 827.742188 678.570312 C 837.089844 673.730469 857.269531 672.789062 869.820312 673.421875 C 881.351562 674.03125 880.421875 670.179688 903.195312 710.378906 C 889.425781 718.519531 874.148438 723.878906 857.761719 726.171875 C 856.460938 726.351562 856.84375 728.308594 858.144531 728.128906 C 873.960938 725.941406 889.765625 720.628906 904.179688 712.109375 C 910.765625 723.769531 916.058594 733.640625 916.058594 733.640625 "/>
<path fill-rule="nonzero" fill="rgb(7.446289%, 28.637695%, 7.446289%)" fill-opacity="1" d="M 743.367188 962.78125 C 732.515625 946.078125 691.46875 885.671875 669.515625 848.199219 C 717.210938 946.941406 713.546875 926.789062 734.550781 971.261719 C 705.289062 968.128906 681.585938 964.851562 657.589844 938.640625 C 709.035156 927.761719 699.816406 925.660156 698.992188 925.921875 C 685.496094 930.25 668.40625 934.460938 656.070312 936.910156 C 645.539062 924.488281 655.253906 924.960938 623.335938 896.179688 C 624.597656 895.96875 659.480469 890.261719 669.15625 888.679688 C 670.453125 888.46875 670.066406 886.5 668.773438 886.710938 C 652.992188 889.289062 637.210938 891.96875 621.417969 894.460938 C 612.871094 886.859375 605.765625 881.261719 605.765625 881.261719 C 606.886719 861.890625 609.890625 841.578125 614.445312 820.5 C 623.125 830.871094 627.148438 828.128906 648.679688 843.53125 C 649.742188 844.28125 650.910156 842.640625 649.84375 841.878906 C 627.570312 826.011719 624.164062 829.511719 614.996094 817.941406 C 619.664062 796.808594 625.84375 774.929688 633.175781 752.46875 L 670.1875 774.660156 L 680.933594 747.121094 C 682.835938 747.011719 684.945312 747.601562 687.113281 748.601562 C 685.816406 766.058594 682.824219 815.578125 682.445312 822.871094 C 682.382812 824.160156 684.414062 824.308594 684.476562 823.019531 C 685.742188 798.550781 687.273438 774.058594 689.078125 749.609375 C 697.671875 754.441406 706.492188 764.570312 706.492188 764.570312 C 722.671875 806.660156 720.683594 787.339844 705.328125 839.78125 C 695.617188 872.941406 701.410156 868.390625 701.558594 867.070312 C 704.160156 844.070312 713.273438 824.460938 719.796875 799.71875 C 725.175781 814.128906 731.355469 830.941406 736.675781 845.988281 C 734.386719 868.390625 728.582031 891.070312 718.757812 913.058594 C 718.230469 914.25 720.152344 914.921875 720.675781 913.738281 C 729.640625 893.621094 735.566406 872.21875 738.234375 850.421875 C 749.859375 883.648438 755.335938 888.078125 743.367188 962.78125 "/>
<path fill-rule="nonzero" fill="rgb(50.584412%, 66.601562%, 11.376953%)" fill-opacity="1" d="M 805.585938 1178.851562 C 802.304688 1180.378906 798.996094 1181.988281 795.773438 1183.648438 C 793.289062 1158.238281 790.113281 1127.371094 788.207031 1115.199219 C 782.898438 1081.460938 737.957031 970.71875 716.917969 938.179688 C 703.796875 917.898438 683.199219 876.53125 669.515625 848.199219 C 691.46875 885.671875 732.515625 946.078125 743.367188 962.78125 C 759.039062 987.390625 790.882812 1068.789062 796.074219 1099.039062 C 799.292969 1117.871094 803.082031 1153.421875 805.585938 1178.851562 "/>
<path fill-rule="nonzero" fill="rgb(50.584412%, 66.601562%, 11.376953%)" fill-opacity="1" d="M 853.515625 1163.699219 C 849.054688 1163.101562 845.605469 1163 843.503906 1163.449219 C 826.648438 1094.808594 828.902344 1119.410156 830.203125 1001.199219 C 808.667969 928.871094 809.898438 937.539062 809.9375 919.550781 C 810.0625 860.910156 831.808594 767.769531 831.808594 767.769531 C 814.875 922.449219 811.269531 934.199219 835.011719 990.480469 C 843.914062 1120.851562 830.207031 1089.980469 853.515625 1163.699219 "/>
<path fill-rule="nonzero" fill="rgb(50.584412%, 66.601562%, 11.376953%)" fill-opacity="1" d="M 1081.800781 847.648438 C 1081.800781 847.648438 972.453125 956.410156 968.921875 960.171875 C 961.015625 968.589844 900.144531 1055.46875 898.722656 1065.03125 C 897.703125 1071.921875 892.347656 1137.109375 889.414062 1173.21875 C 884.710938 1171.53125 880.15625 1170.050781 875.851562 1168.789062 C 878.449219 1137 883.515625 1083.699219 889.371094 1066.890625 C 895.835938 1048.351562 932.960938 995.199219 953.019531 968.980469 C 964.230469 954.308594 1063.179688 855.328125 1081.800781 847.648438 "/>
<path fill-rule="nonzero" fill="rgb(48.631287%, 3.137207%, 18.431091%)" fill-opacity="1" d="M 946.09375 1202.398438 C 895.117188 1206.769531 871.667969 1203.511719 933.042969 1193.640625 C 902.8125 1175.488281 856.582031 1160.648438 843.503906 1163.449219 C 842.191406 1163.710938 786.070312 1182.960938 766.785156 1204.160156 C 799.28125 1204.988281 834.84375 1194.019531 758.550781 1213.609375 C 742.804688 1232.390625 724.839844 1258.359375 727.996094 1276.660156 C 730.519531 1291.261719 746.445312 1319.328125 765.703125 1339.21875 C 832.515625 1317.761719 858.625 1315.609375 773.554688 1346.679688 C 781.949219 1353.980469 790.703125 1359.308594 799.050781 1361.089844 C 829.914062 1367.628906 876.855469 1370.910156 883.761719 1397.171875 C 883.761719 1397.171875 884.644531 1367.871094 894.082031 1363.960938 C 903.515625 1360.070312 952.316406 1330.941406 959.09375 1309.128906 C 960.074219 1305.980469 961.222656 1302 962.363281 1297.421875 L 893.183594 1299.980469 C 893.183594 1299.980469 930.191406 1293.839844 964.082031 1289.898438 C 969.628906 1263.308594 972.214844 1223.738281 946.09375 1202.398438 "/>
<path fill-rule="nonzero" fill="rgb(100%, 100%, 100%)" fill-opacity="1" d="M 866.199219 1247.050781 L 768.234375 1272.628906 C 769.726562 1271.910156 870.054688 1224.039062 885.9375 1230.449219 C 920.085938 1244.238281 980.023438 1233.03125 866.199219 1247.050781 "/>
<path fill-rule="nonzero" fill="rgb(16.479492%, 0%, 41.967773%)" fill-opacity="1" d="M 1730.929688 275 C 1717.878906 288.75 1710.988281 307.5 1704.261719 324.980469 C 1662.839844 432.589844 1611.121094 526.238281 1689 716.808594 C 1702.828125 750.648438 1717.648438 792.03125 1740.910156 820.609375 C 1763.929688 848.910156 1800.699219 863.128906 1829.46875 884.710938 C 1848.53125 899.011719 1898.789062 896.019531 1916.761719 882.828125 C 1954.410156 855.179688 1951.5 764.75 1922.730469 715.308594 C 1900.628906 677.328125 1806.808594 597.691406 1797.460938 484.359375 C 1792.230469 420.859375 1821.769531 319 1806.378906 281.949219 C 1795.589844 255.949219 1759.191406 245.238281 1730.929688 275 "/>
<path fill-rule="nonzero" fill="rgb(7.446289%, 28.637695%, 7.446289%)" fill-opacity="1" d="M 1761.371094 245.078125 L 1718.671875 264.320312 L 1695.578125 294.890625 L 1727.898438 272.25 C 1727.898438 272.25 1703.660156 302.808594 1701.351562 310.738281 C 1701.351562 310.738281 1747.519531 285.828125 1749.828125 277.910156 C 1749.828125 277.910156 1746.371094 327.71875 1752.140625 352.628906 C 1752.140625 352.628906 1787.921875 306.210938 1789.070312 289.230469 L 1815.621094 310.738281 C 1815.621094 310.738281 1826.011719 273.378906 1789.070312 245.078125 C 1789.070312 245.078125 1807.539062 190.738281 1812.160156 185.078125 C 1816.769531 179.421875 1834.078125 157.910156 1862.941406 157.910156 L 1862.941406 142.058594 C 1862.941406 142.058594 1820.238281 148.851562 1807.539062 159.039062 C 1794.839844 169.230469 1761.371094 245.078125 1761.371094 245.078125 "/>
<path fill-rule="nonzero" fill="rgb(100%, 100%, 100%)" fill-opacity="1" d="M 1849.089844 660.859375 C 1858 659.011719 1863.371094 660.859375 1866.28125 677.46875 C 1862.101562 690.921875 1837.660156 680.058594 1840.558594 673.238281 C 1845.070312 662.601562 1839.019531 667.769531 1849.089844 660.859375 "/>
<path fill-rule="nonzero" fill="rgb(100%, 100%, 100%)" fill-opacity="1" d="M 1858.921875 699.191406 C 1858.921875 699.191406 1877.910156 690.191406 1890.851562 712.980469 C 1923.171875 769.929688 1940.578125 779.929688 1907.019531 826.660156 C 1907.019531 826.660156 1879.371094 832.53125 1880.25 815.578125 C 1881.121094 798.628906 1857.308594 730.480469 1858.011719 716.878906 L 1858.921875 699.191406 "/>
</svg>
